<svg width="401" height="340" viewBox="0 0 401 340" fill="none" xmlns="http://www.w3.org/2000/svg">
<path d="M66.1824 196.429L24.0748 50.8608" stroke="#9C9C9C" stroke-width="3.43927" stroke-linecap="round"/>
<circle cx="8.34022" cy="8.34022" r="8.34022" transform="matrix(-0.99415 0.10801 0.10801 0.99415 29.8062 36.7456)" fill="#1B7AE0"/>
<path d="M194.385 231.269C194.974 224.225 195.508 218.06 195.123 209.385C194.755 201.066 193.567 190.779 191.212 174.76C188.872 158.847 186.939 148.207 184.383 139.702C181.612 130.488 178.273 124.352 174.495 117.692L174.154 117.113C172.407 114.247 170.011 111.827 167.156 110.05L155.8 128.3C167.156 110.05 167.147 110.045 167.138 110.039C167.135 110.037 167.126 110.031 167.12 110.028C167.108 110.02 167.096 110.013 167.084 110.005C167.059 109.99 167.034 109.975 167.008 109.959C166.955 109.927 166.9 109.893 166.842 109.859C166.727 109.789 166.6 109.714 166.461 109.634C166.185 109.473 165.862 109.293 165.495 109.095C164.76 108.7 163.843 108.238 162.744 107.74C160.543 106.743 157.618 105.604 153.969 104.565C146.636 102.478 136.549 100.847 123.772 101.482C110.559 102.139 100.509 105.225 93.2598 108.728C89.6687 110.464 86.8512 112.26 84.7403 113.822C83.6868 114.602 82.8124 115.32 82.1085 115.939C81.7566 116.249 81.4479 116.535 81.1798 116.791C81.0457 116.919 80.9212 117.039 80.8076 117.152C80.7509 117.208 80.6967 117.262 80.645 117.314C80.6192 117.34 80.5937 117.366 80.569 117.391C80.5568 117.404 80.5446 117.416 80.5326 117.428C80.5266 117.435 80.5173 117.444 80.5144 117.447C80.5096 117.46 80.7426 117.704 95.7669 132.292L80.4972 117.466C78.0879 119.947 76.3123 122.973 75.3223 126.287C72.5445 135.585 67.5334 162.047 69.8235 190.056C72.8873 227.529 85.4679 246.086 92.3105 253.618C94.6737 256.219 97.6384 258.201 100.945 259.391L108.22 239.164L101.858 256.863C100.951 259.392 100.954 259.393 100.957 259.394C100.959 259.395 100.964 259.397 100.967 259.398C100.975 259.401 100.983 259.404 100.991 259.407C101.007 259.413 101.025 259.419 101.042 259.425C101.078 259.438 101.117 259.452 101.159 259.466C101.243 259.496 101.341 259.53 101.451 259.567C101.672 259.642 101.945 259.732 102.267 259.835C102.912 260.041 103.758 260.297 104.786 260.579C106.834 261.141 109.64 261.814 113.036 262.387C119.753 263.521 129.212 264.338 139.884 262.854C150.365 261.397 161.251 257.634 168.727 254.713C172.639 253.184 175.989 251.736 178.377 250.663C179.576 250.124 180.544 249.675 181.233 249.35C181.578 249.188 181.853 249.056 182.054 248.959C182.154 248.911 182.236 248.872 182.298 248.842C182.329 248.827 182.354 248.813 182.375 248.803C182.386 248.798 182.396 248.794 182.404 248.79C182.408 248.788 182.412 248.786 182.415 248.785C182.417 248.784 182.419 248.783 182.42 248.782C182.422 248.781 182.372 248.673 172.965 229.478L182.424 248.78C189.213 245.452 193.755 238.803 194.385 231.269Z" fill="white" stroke="white" stroke-width="42.9908" stroke-linejoin="round"/>
<ellipse cx="4.72899" cy="6.44863" rx="4.72899" ry="6.44863" transform="matrix(-0.99415 0.10801 0.10801 0.99415 166.257 151.133)" fill="#272F4E"/>
<ellipse cx="4.72899" cy="6.44863" rx="4.72899" ry="6.44863" transform="matrix(-0.99415 0.10801 0.10801 0.99415 166.257 151.133)" fill="#272F4E"/>
<ellipse cx="4.72899" cy="6.44863" rx="4.72899" ry="6.44863" transform="matrix(-0.99415 0.10801 0.10801 0.99415 102.2 160.168)" fill="#272F4E"/>
<ellipse cx="4.72899" cy="6.44863" rx="4.72899" ry="6.44863" transform="matrix(-0.99415 0.10801 0.10801 0.99415 102.2 160.168)" fill="#272F4E"/>
<path d="M218.869 195.377C219.09 195.152 219.236 194.584 215.697 194.627C166.85 198.781 66.5356 207.321 56.0507 208.253C42.9446 209.417 35.4514 197.661 27.3008 199.96C18.3217 202.492 17.5184 212.612 19.9376 217.366C22.3568 222.119 40.7603 229.114 45.519 232.316C50.2778 235.518 53.7777 252.609 55.97 260.846C58.1623 269.084 65.0428 278.282 75.7199 284.214C82.1689 287.797 94.0951 290.078 94.3537 294.125C95.0946 305.72 92.7107 302.087 86.5858 306.212C80.4609 310.337 82.7703 317.265 86.6909 321.509C90.6116 325.754 106.473 327.663 115.492 320.715C124.51 313.768 119.285 295.135 124.723 292.642C130.16 290.148 154.111 288.497 158.52 290.872C162.048 292.773 162.808 296.374 162.747 297.938C165.075 303.97 171.682 316.012 179.491 315.924C189.252 315.815 199.987 313.524 205.521 306.35C211.055 299.176 210.998 295.463 207.533 291.429C203.754 287.03 199.529 289.409 197.342 288.384C195.155 287.36 191.322 280.736 191.105 276.348C190.888 271.961 203.129 273.918 214.79 258.726C221.382 250.14 217.826 240.494 219.978 234.033C222.13 227.572 229.896 224.22 233.82 222.928C237.745 221.637 248.233 215.482 252.754 210.926C257.276 206.369 253.768 188.599 246.657 188.236C232.568 187.518 228.79 190.956 221.851 193.958C219.914 194.796 219.138 195.212 218.869 195.377Z" fill="white"/>
<path d="M110.313 320.314C109.886 322.216 110.062 323.044 104.985 323.219C102.499 323.109 96.7924 322.55 93.8566 321.195C90.1868 319.5 85.0846 312.898 85.4824 309.637C85.8801 306.376 95.3405 311.519 98.2465 312.599C101.152 313.679 110.74 318.412 110.313 320.314Z" fill="#E7F7FF"/>
<path d="M203.865 294.768C205.391 295.981 206.213 296.184 204.156 300.829C202.974 303.018 199.983 307.911 197.483 309.962C194.358 312.526 186.192 314.239 183.43 312.459C180.669 310.679 189.423 304.408 191.661 302.263C193.9 300.119 202.34 293.554 203.865 294.768Z" fill="#E7F7FF"/>
<path d="M75.8353 279.705C82.0917 283.955 90.1841 286.795 95.8276 285.404C100.757 284.868 110.484 282.427 109.958 276.949C109.3 270.102 91.012 266.553 83.2374 261.863C75.4629 257.172 74.1551 248.32 69.8499 242.128C65.5447 235.936 59.24 232.037 54.808 235.027C50.376 238.017 56.3144 248.096 57.8916 255.449C59.4689 262.802 69.5789 275.455 75.8353 279.705Z" fill="#E7F7FF"/>
<path d="M44.7345 233.523C44.9442 230.079 46.3645 221.693 50.3685 215.691C54.3726 209.689 59.102 206.646 60.9661 205.875" stroke="#DEDEDE" stroke-width="8.59817" stroke-linecap="round"/>
<path d="M123.586 293.321C121.002 292.621 114.071 291.241 107.022 291.315C99.9722 291.389 94.5108 292.386 92.6612 292.875" stroke="#DEDEDE" stroke-width="8.59817" stroke-linecap="round"/>
<path d="M192.935 278.871C189.753 279.394 181.534 281.389 174.124 285.187C166.713 288.985 161.574 293.052 159.931 294.611" stroke="#DEDEDE" stroke-width="8.59817" stroke-linecap="round"/>
<path d="M114.678 322.325C113.166 320.115 108.79 314.566 103.38 310.047C97.9697 305.527 93.1682 302.74 91.4437 301.912" stroke="#DEDEDE" stroke-width="8.59817" stroke-linecap="round"/>
<path d="M224.531 229.417C224.517 226.795 224.003 219.902 222.06 213.299C220.117 206.697 217.709 201.842 216.748 200.24" stroke="#DEDEDE" stroke-width="8.59817" stroke-linecap="round"/>
<path d="M180.485 315.986C180.694 312.543 182.114 304.156 186.119 298.154C190.123 292.152 194.852 289.109 196.716 288.338" stroke="#DEDEDE" stroke-width="8.59817" stroke-linecap="round"/>
<rect x="1.14288" y="-1.42148" width="55.2002" height="32.5011" rx="15.2188" transform="matrix(-0.99415 0.10801 0.10801 0.99415 165.211 230.429)" fill="#B6D3EF" stroke="#91BDE7" stroke-width="2.57945"/>
<path d="M122.012 244.218C124.42 241.708 139.7 240.653 143.153 242.181C146.681 243.613 148.679 250.056 143.513 254.25C138.346 258.444 126.307 258.281 122.912 256.488C118.302 254.053 119.603 246.728 122.012 244.218Z" stroke="#91BDE7" stroke-width="3.43927"/>
<path d="M35.129 82.8081C38.7639 81.748 41.2829 82.0173 41.7218 83.3168C42.1956 84.7194 39.3426 86.9498 35.3495 88.2986C31.3564 89.6474 27.7353 89.6039 27.2615 88.2013C26.8511 86.9861 28.3989 85.4105 31.5605 84.0642" stroke="#5B92D6" stroke-width="2.57945"/>
<path d="M32.3747 72.7461C37.8682 71.144 42.6144 71.345 43.2778 73.3088C43.9938 75.4286 39.682 78.7995 33.6472 80.838C27.6124 82.8765 22.1397 82.8106 21.4237 80.6909C20.8034 78.8544 23.9568 76.0788 28.735 74.0442" stroke="#9DDBE3" stroke-width="2.57945"/>
<path d="M30.3763 64.0421C37.0533 62.0948 42.822 62.3391 43.6283 64.726C44.4986 67.3025 39.2579 71.3996 31.9229 73.8773C24.5879 76.355 17.9362 76.2749 17.0659 73.6985C16.3119 71.4664 20.1447 68.0928 25.9524 65.6199" stroke="#1B7AE0" stroke-width="2.57945"/>
<path d="M119.049 53.2603C171.29 53.2603 208.239 68.2688 226.013 140.097C228.132 159.601 229.694 175.479 219.34 189.482C191.868 204.544 168.507 212.949 136.733 216.026C111.314 218.488 67.0476 214.422 50.2316 211.849C33.5027 204.381 35.1586 179.761 33.0395 160.256C29.959 96.3528 60.9527 58.2341 119.049 53.2603Z" fill="#DEF8FA" fill-opacity="0.5"/>
<path d="M119.238 57.5591C91.1674 59.9983 70.1515 70.3647 56.45 87.358C42.6915 104.422 35.8412 128.748 37.33 159.957C37.8578 164.871 38.164 170.181 38.5535 175.161C38.955 180.295 39.454 185.216 40.3696 189.707C42.1726 198.552 45.3768 204.718 51.4861 207.688C68.6109 210.245 111.723 214.129 136.318 211.747C167.079 208.768 189.727 200.72 216.424 186.173C224.987 173.98 223.863 160.136 221.772 140.856C213.026 105.682 199.775 85.1427 182.973 73.2522C166.108 61.3168 144.952 57.5773 119.238 57.5591Z" stroke="#002492" stroke-opacity="0.26" stroke-width="8.59817"/>
<path d="M39.9487 193.489C39.6474 193.467 39.3563 193.604 39.1827 193.852C39.0091 194.099 38.9787 194.419 39.1015 194.695L47.0646 212.602C47.1628 212.823 47.3495 212.993 47.5789 213.069C61.3465 217.636 99.6098 225.69 142.981 221.554C186.371 217.417 214.017 201.525 222.504 193.983C222.674 193.831 222.778 193.617 222.791 193.39L223.728 177.21C223.744 176.928 223.62 176.655 223.397 176.481C223.173 176.307 222.878 176.255 222.609 176.341C209.394 180.553 174.328 189.85 139.929 193.301C105.529 196.751 58.9447 194.865 39.9487 193.489Z" fill="#1B7AE0" stroke="#1B7AE0" stroke-width="1.71963" stroke-linecap="round" stroke-linejoin="round"/>
<path fill-rule="evenodd" clip-rule="evenodd" d="M223.924 175.802C223.477 175.455 222.887 175.35 222.347 175.521C209.172 179.721 174.167 189.002 139.844 192.445C123.292 194.105 103.903 194.525 86.1344 194.363C94.0587 200.065 103.924 205.737 113.625 207.532C138.759 212.183 167.246 204.322 193.305 197.708C204.336 194.908 215.253 190.969 223.997 187.449L224.586 177.259C224.619 176.694 224.371 176.149 223.924 175.802Z" fill="#A8D5F3" fill-opacity="0.35"/>
<path d="M91.5496 84.0718C90.5893 84.1762 88.4616 84.9843 85.3741 87.0855C82.4586 89.0697 79.2055 91.8489 76.0942 95.1045C74.269 97.0143 72.563 99.0144 71.0326 101.038C73.2693 99.1331 75.4085 97.5529 77.5231 96.0691C82.4864 92.5863 86.7927 89.9457 92.242 84.6949C92.5203 84.4268 92.7771 84.1708 93.0153 83.9282C92.4816 83.9724 91.9821 84.0248 91.5496 84.0718Z" stroke="white" stroke-width="10.3178" stroke-linecap="round"/>
<mask id="path-26-inside-1_1519_2584" fill="white">
<path d="M48.3085 153.64C48.3085 153.64 48.2486 132.711 54.7578 121.525C54.7578 121.525 63.718 119.974 59.0448 125.203C54.3715 130.432 48.3085 153.64 48.3085 153.64Z"/>
</mask>
<path d="M54.7578 121.525L45.8399 116.336L48.2588 112.179L52.9979 111.358L54.7578 121.525ZM48.3085 153.64L58.2913 156.248L37.9908 153.67L48.3085 153.64ZM59.0448 125.203L51.3516 118.327L59.0448 125.203ZM54.7578 121.525L63.6757 126.714C61.5453 130.375 60.1075 136.606 59.336 143.011C58.9746 146.011 58.7958 148.712 58.7083 150.659C58.6647 151.628 58.6442 152.398 58.6347 152.911C58.6299 153.168 58.6278 153.359 58.627 153.479C58.6265 153.538 58.6264 153.58 58.6263 153.602C58.6263 153.613 58.6263 153.62 58.6263 153.621C58.6263 153.622 58.6263 153.621 58.6263 153.62C58.6263 153.619 58.6263 153.618 58.6263 153.616C58.6263 153.615 58.6263 153.614 58.6263 153.614C58.6263 153.612 58.6263 153.611 48.3085 153.64C37.9908 153.67 37.9908 153.668 37.9908 153.667C37.9908 153.666 37.9908 153.664 37.9907 153.663C37.9907 153.66 37.9907 153.657 37.9907 153.653C37.9907 153.647 37.9907 153.639 37.9907 153.629C37.9907 153.611 37.9907 153.587 37.9908 153.558C37.9909 153.5 37.9912 153.423 37.9919 153.327C37.9933 153.134 37.9964 152.865 38.0027 152.527C38.0152 151.852 38.041 150.9 38.0935 149.732C38.1981 147.405 38.4112 144.174 38.8485 140.544C39.6742 133.688 41.4611 123.861 45.8399 116.336L54.7578 121.525ZM54.7578 121.525C52.9979 111.358 53.0003 111.358 53.0028 111.357C53.0036 111.357 53.0061 111.357 53.0079 111.357C53.0114 111.356 53.015 111.355 53.0188 111.355C53.0263 111.353 53.0345 111.352 53.0432 111.351C53.0607 111.348 53.0806 111.344 53.1028 111.341C53.1472 111.333 53.2009 111.325 53.2633 111.315C53.3876 111.295 53.548 111.271 53.7382 111.245C54.1138 111.194 54.6299 111.132 55.2307 111.082C56.2609 110.996 58.2205 110.884 60.2894 111.216C61.312 111.38 62.9909 111.746 64.742 112.716C66.6023 113.746 69.0969 115.803 70.2017 119.368C71.2739 122.827 70.4581 125.86 69.6409 127.711C68.8351 129.536 67.7017 131 66.7379 132.078L59.0448 125.203L51.3516 118.327C51.5562 118.098 51.165 118.467 50.7636 119.376C50.3509 120.311 49.6019 122.608 50.4912 125.477C51.4131 128.451 53.4754 130.065 54.742 130.767C55.8994 131.408 56.8234 131.559 57.0181 131.59C57.3032 131.636 57.4249 131.628 57.3223 131.628C57.2448 131.627 57.1124 131.632 56.9389 131.647C56.7727 131.66 56.6253 131.678 56.5292 131.691C56.4835 131.698 56.4559 131.702 56.4513 131.703C56.4491 131.703 56.4531 131.702 56.4639 131.701C56.4692 131.7 56.4764 131.699 56.4853 131.697C56.4898 131.696 56.4947 131.695 56.5001 131.695C56.5028 131.694 56.5056 131.694 56.5085 131.693C56.51 131.693 56.5123 131.692 56.513 131.692C56.5153 131.692 56.5177 131.692 54.7578 121.525ZM59.0448 125.203L66.7379 132.078C66.8363 131.968 66.1361 132.932 64.9051 135.856C63.8381 138.39 62.7434 141.477 61.736 144.574C60.7379 147.642 59.8722 150.576 59.2538 152.752C58.9458 153.837 58.7017 154.724 58.5361 155.334C58.4534 155.639 58.3904 155.875 58.3489 156.03C58.3282 156.108 58.3129 156.166 58.3032 156.203C58.2984 156.221 58.295 156.234 58.293 156.242C58.292 156.246 58.2913 156.248 58.291 156.249C58.2909 156.25 58.2909 156.25 58.2909 156.25C58.2909 156.25 58.291 156.249 58.291 156.249C58.2912 156.249 58.2913 156.248 48.3085 153.64C38.3257 151.032 38.3259 151.032 38.3262 151.031C38.3263 151.03 38.3265 151.03 38.3267 151.029C38.3271 151.027 38.3276 151.025 38.3282 151.023C38.3294 151.018 38.331 151.012 38.3329 151.005C38.3368 150.99 38.3421 150.97 38.3489 150.944C38.3624 150.893 38.3817 150.82 38.4066 150.727C38.4562 150.54 38.5281 150.272 38.6202 149.932C38.8045 149.253 39.0706 148.286 39.4039 147.112C40.0685 144.774 41.0106 141.578 42.1124 138.191C43.2049 134.832 44.5021 131.136 45.8863 127.849C47.1064 124.95 48.9166 121.052 51.3516 118.327L59.0448 125.203Z" fill="white" mask="url(#path-26-inside-1_1519_2584)"/>
<path d="M59.4202 198.871L48.1115 198.123L50.8475 208.425L62.764 210.633L59.4202 198.871Z" fill="#B2D8ED" stroke="#D3EAEA" stroke-width="1.71963" stroke-linecap="round" stroke-linejoin="round"/>
<circle cx="2.94673" cy="2.94673" r="2.94673" transform="matrix(-0.99415 0.10801 0.10801 0.99415 72.1316 202.609)" fill="#D92D2D"/>
<circle cx="2.94673" cy="2.94673" r="2.94673" transform="matrix(-0.99415 0.10801 0.10801 0.99415 80.8274 203.281)" fill="#74C884"/>
<path d="M359.276 175.779L372.735 100.671C372.735 100.671 345.61 113.998 315.981 91.0247C286.352 68.0516 258.125 82.7628 258.125 82.7628L251.14 146.085C251.14 146.085 263.882 132.073 294.007 157.265C324.132 182.457 359.276 175.779 359.276 175.779Z" fill="#84CEFF"/>
<path fill-rule="evenodd" clip-rule="evenodd" d="M372.735 100.671C372.701 100.688 357.58 108.096 337.596 102.293C337.36 111.922 336.957 122.32 336.281 131.847C335.334 145.191 329.443 160.488 323.433 173.002C343.168 178.832 359.259 175.782 359.276 175.779L372.735 100.671ZM292.935 79.6552C274.498 75.1989 260.092 81.8005 258.31 82.6703L252.69 144.843C256.408 142.388 266.974 138.211 286.039 151.204C290.283 140.458 294.047 128.318 294.301 118.593C294.593 107.345 293.808 92.1727 292.935 79.6552Z" fill="#E7FDFF" fill-opacity="0.3"/>
<path d="M262.374 45.5232C269.926 46.3518 275.498 53.1581 274.818 60.7254C274.139 68.2928 267.465 73.7556 259.913 72.927C252.36 72.0984 246.789 65.2921 247.468 57.7248C248.148 50.1574 254.821 44.6946 262.374 45.5232ZM241.925 302.05L241.694 304.619L236.566 304.057L236.796 301.488L239.361 301.769L241.925 302.05ZM261.143 59.2251L263.707 59.5064L241.925 302.05L239.361 301.769L236.796 301.488L258.579 58.9438L261.143 59.2251Z" fill="#6E393E"/>
<path fill-rule="evenodd" clip-rule="evenodd" d="M262.374 45.5237C261.092 45.383 259.835 45.4233 258.629 45.6248C257.183 48.0012 256.34 50.8044 256.324 53.8108C256.28 62.1075 262.539 68.9274 270.492 69.4962C272.888 67.3085 274.502 64.2453 274.819 60.7252C275.498 53.1582 269.926 46.3525 262.374 45.5237Z" fill="white" fill-opacity="0.15"/>
</svg>
