<svg width="295" height="299" viewBox="0 0 295 299" fill="none" xmlns="http://www.w3.org/2000/svg">
<path d="M139.893 212.794C138.455 205.379 137.177 198.892 136.584 189.634C136.016 180.754 136.091 169.69 136.744 152.402C137.393 135.228 138.216 123.703 139.951 114.373C141.83 104.266 144.669 97.363 147.914 89.853C149.435 86.3346 151.812 83.2523 154.828 80.8876L168.997 98.963C155.021 81.1341 154.84 80.8843 154.846 80.8743C154.849 80.872 154.858 80.8645 154.864 80.8598C154.875 80.8507 154.887 80.8414 154.899 80.8321C154.924 80.8131 154.949 80.7935 154.975 80.7735C155.027 80.7336 155.082 80.6918 155.139 80.6482C155.254 80.5611 155.38 80.466 155.518 80.3649C155.793 80.1627 156.114 79.9336 156.481 79.6815C157.217 79.1769 158.138 78.5801 159.248 77.9241C161.471 76.6112 164.447 75.0639 168.203 73.5396C175.752 70.4762 186.278 67.5791 199.923 66.7793C214.035 65.9522 225.066 68.0698 233.17 70.9546C237.186 72.3839 240.386 73.9671 242.808 75.3825C244.018 76.089 245.029 76.7514 245.848 77.3284C246.258 77.6169 246.619 77.8838 246.934 78.1245C247.091 78.2449 247.236 78.3591 247.37 78.4656C247.437 78.5188 247.501 78.5699 247.562 78.6194C247.592 78.6442 247.623 78.6686 247.652 78.6925L247.716 78.7457C247.726 78.7547 247.668 78.8457 233.227 96.2756L247.736 78.7627C250.582 81.1203 252.817 84.1301 254.251 87.5359C258.274 97.0919 266.652 124.623 267.452 154.641C268.522 194.799 257.3 215.963 250.901 224.753C248.691 227.789 245.77 230.237 242.395 231.882L232.333 211.235C242.394 231.882 242.389 231.885 242.383 231.887C242.381 231.888 242.376 231.891 242.372 231.892C242.364 231.896 242.356 231.9 242.348 231.904C242.331 231.912 242.314 231.92 242.296 231.929C242.259 231.947 242.219 231.966 242.176 231.986C242.09 232.027 241.991 232.075 241.878 232.128C241.652 232.233 241.372 232.36 241.042 232.507C240.381 232.8 239.511 233.169 238.452 233.587C236.341 234.42 233.439 235.46 229.898 236.461C222.893 238.44 212.94 240.399 201.432 240.055C190.131 239.716 178.133 236.976 169.855 234.736C165.523 233.563 161.797 232.411 159.136 231.547C157.801 231.113 156.72 230.747 155.951 230.482C155.566 230.349 155.258 230.241 155.034 230.162C154.922 230.123 154.831 230.09 154.762 230.065C154.727 230.053 154.698 230.042 154.674 230.033C154.663 230.029 154.652 230.026 154.643 230.022C154.639 230.021 154.634 230.019 154.63 230.018C154.629 230.017 154.626 230.016 154.625 230.016C154.622 230.015 154.62 230.014 162.441 208.419L154.62 230.014C147.024 227.263 141.432 220.724 139.893 212.794Z" fill="white" stroke="white" stroke-width="45.9354" stroke-linejoin="round"/>
<path fill-rule="evenodd" clip-rule="evenodd" d="M262.286 61.1049C267.977 65.8202 272.446 71.8401 275.314 78.6518C280.302 90.4966 289.423 120.836 290.308 154.057C291.508 199.089 278.859 225.26 269.366 238.299C264.946 244.371 259.104 249.266 252.352 252.556L232.229 211.263L249.761 247.256C252.295 252.466 252.335 252.562 252.33 252.567C252.326 252.569 252.315 252.575 252.308 252.579C252.292 252.586 252.277 252.593 252.262 252.601C252.23 252.616 252.198 252.632 252.165 252.648C252.099 252.68 252.029 252.713 251.956 252.747C251.809 252.818 251.647 252.894 251.471 252.976C251.119 253.14 250.708 253.327 250.242 253.534C249.311 253.946 248.151 254.439 246.78 254.98C244.052 256.056 240.417 257.353 236.041 258.59C227.444 261.02 215.09 263.473 200.641 263.04C186.604 262.62 172.528 259.31 163.75 256.934C158.976 255.642 154.877 254.374 151.937 253.419C150.458 252.939 149.244 252.529 148.356 252.222C147.912 252.069 147.545 251.94 147.266 251.841C147.127 251.792 147.009 251.75 146.914 251.716C146.866 251.699 146.824 251.684 146.788 251.671C146.77 251.665 146.753 251.658 146.737 251.653C146.73 251.65 146.723 251.646 146.716 251.644C146.712 251.643 146.707 251.642 146.705 251.641C146.7 251.639 146.731 251.539 162.337 208.448L146.695 251.637C131.504 246.135 120.32 233.058 117.242 217.197C115.8 209.762 114.256 201.997 113.56 191.129C112.913 181.02 113.03 168.98 113.688 151.563C114.338 134.373 115.194 121.349 117.266 110.203C119.628 97.4999 123.305 88.6908 126.727 80.7699L127.017 80.1127C130.067 73.3491 134.711 67.4208 140.556 62.8393L163.495 92.1039C162.993 92.0781 162.497 92.0551 162.008 92.0375C157.511 91.8761 153.531 92.0927 149.438 93.1947C145.345 94.2968 141.143 96.2833 136.197 99.6576C130.016 103.875 126.611 107.692 124.716 112.214C122.822 116.732 122.439 121.946 122.279 128.942C122.132 135.379 123.161 140.797 125.592 145.643C128.022 150.488 131.852 154.755 137.296 158.893C148.482 167.397 158.114 168.907 168.231 168.379C173.285 168.116 178.465 167.343 184.013 166.683C189.563 166.022 195.489 165.474 202.049 165.653C208.824 165.838 214.31 166.407 219.12 167.014C223.928 167.621 228.07 168.264 232.146 168.597C240.309 169.263 248.224 168.681 260.808 164.066C264.458 162.727 269.207 159.171 273.143 154.563C277.08 149.954 280.217 144.277 280.628 138.687L280.655 138.319C281.155 131.514 281.542 126.254 280.743 121.267C279.943 116.275 277.956 111.561 273.718 105.837C269.917 100.705 265.706 97.2758 260.955 95.0434C256.205 92.8115 250.919 91.7781 244.974 91.4301C242.517 91.2863 239.948 91.2598 237.256 91.3139L262.286 61.1049ZM198.475 43.8793C215.642 42.8732 229.751 45.4229 240.769 49.3451C246.205 51.28 250.701 53.4829 254.291 55.5805C256.082 56.6268 257.639 57.6416 258.97 58.5785C259.635 59.0468 260.243 59.4955 260.795 59.9184C261.071 60.1298 261.334 60.3347 261.582 60.5326C261.706 60.6316 261.827 60.7293 261.944 60.8246C262.003 60.8722 262.06 60.9196 262.117 60.9662C262.146 60.9896 262.175 61.0134 262.203 61.0365C262.217 61.0479 262.237 61.0648 262.244 61.0707C262.263 61.0876 262.17 61.2377 237.255 91.3139C233.431 91.3907 229.36 91.6306 225.017 91.9311C217.615 92.4432 209.421 93.1302 200.302 93.4838C183.055 94.1524 172.23 92.5531 163.496 92.1039C140.656 62.9635 140.574 62.8261 140.59 62.8129C140.596 62.8082 140.613 62.7946 140.625 62.7856C140.648 62.7673 140.671 62.7484 140.695 62.7299L141.145 62.3842C141.355 62.225 141.578 62.0581 141.813 61.8852C142.284 61.5391 142.808 61.1663 143.383 60.7719C144.532 59.983 145.891 59.1066 147.463 58.1781C150.61 56.3189 154.601 54.2583 159.463 52.2856C169.258 48.3107 182.243 44.8307 198.475 43.8793Z" fill="#74C884"/>
<path d="M118.252 170.756C100.906 178.326 78.9921 168.888 70.2031 163.223" stroke="#2E4F3C" stroke-width="5.51225" stroke-linecap="round"/>
<path d="M277.28 178.564C293.266 188.946 290.969 210.076 291.887 219.998" stroke="#2E4F3C" stroke-width="5.51225" stroke-linecap="round"/>
<path d="M165.381 252.796C165.381 275.243 162.503 288.485 161.063 292.3H147.007" stroke="#2E4F3C" stroke-width="5.51225" stroke-linecap="round" stroke-linejoin="round"/>
<path d="M234.741 252.796C243.364 274.333 246.393 287.863 246.83 291.935L236.782 295.958" stroke="#2E4F3C" stroke-width="5.51225" stroke-linecap="round" stroke-linejoin="round"/>
<path d="M141.305 134.633C145.557 127.45 151.655 123.361 159.913 122.155C168.859 120.848 176.527 123.598 182.603 130.292" stroke="#2E4F3C" stroke-width="5.51225" stroke-linecap="round" stroke-linejoin="bevel"/>
<path d="M216.094 129.118C222.06 123.28 229.008 120.909 237.298 121.881C246.277 122.934 252.971 127.575 257.108 135.614" stroke="#2E4F3C" stroke-width="5.51225" stroke-linecap="round" stroke-linejoin="bevel"/>
<path d="M154.542 0.243385C173.578 -3.35795 176.622 33.8987 175.764 52.9772H166.118C164.189 42.2589 159.172 20.4365 154.542 18.8931C148.754 16.9638 141.68 31.755 135.892 29.1826C130.104 26.6102 130.748 4.74505 154.542 0.243385Z" fill="#74C884"/>
<path d="M273.458 18.8011C263.609 15.7142 237.628 36.379 225.869 47.0973L238.088 52.8851C246.877 43.453 265.484 26.904 269.599 36.1646C274.744 47.7403 281.91 47.0973 288.341 47.0973C294.772 47.0973 285.769 22.6596 273.458 18.8011Z" fill="#74C884"/>
<path d="M231.847 57.1655C237.461 55.1629 255.054 59.4073 258.127 71.8125C261.248 83.9616 244.071 83.5354 233.917 83.9698C223.763 84.4042 213.998 82.2652 212.144 78.366C210.289 74.4669 222.661 60.4424 231.847 57.1655Z" fill="#2E4F3C"/>
<path d="M237.11 62.9436C237.448 62.5302 238.117 62.7909 238.087 63.324L238.012 64.63C237.999 64.8684 238.14 65.0885 238.363 65.1751L239.581 65.6498C240.079 65.8435 240.038 66.5608 239.522 66.6966L238.256 67.029C238.025 67.0897 237.86 67.2922 237.846 67.5306L237.771 68.8366C237.741 69.3697 237.046 69.5523 236.757 69.1031L236.05 68.0026C235.921 67.8017 235.677 67.7068 235.446 67.7675L234.181 68.0999C233.665 68.2357 233.276 67.6312 233.614 67.2179L234.443 66.2053C234.594 66.0204 234.609 65.7592 234.48 65.5583L233.772 64.4578C233.484 64.0086 233.939 63.4524 234.436 63.6462L235.655 64.1209C235.878 64.2075 236.131 64.141 236.282 63.9562L237.11 62.9436Z" fill="white"/>
<circle cx="246.141" cy="65.7337" r="1.70785" transform="rotate(44 246.141 65.7337)" fill="white"/>
<rect x="246.214" y="74.2363" width="2.31005" height="2.31005" rx="0.918708" transform="rotate(85.8843 246.214 74.2363)" fill="white"/>
<path d="M172.205 57.2494C166.592 55.2468 150.367 59.0887 147.293 71.4939C144.173 83.643 158.167 85.8331 168.321 86.2676C178.475 86.702 189.894 82.8167 191.748 78.9176C193.603 75.0184 181.391 60.5263 172.205 57.2494Z" fill="#2E4F3C"/>
<path d="M168.658 63.0636C168.389 62.6025 167.687 62.7552 167.633 63.2866L167.503 64.5881C167.479 64.8257 167.305 65.021 167.072 65.0718L165.793 65.3499C165.272 65.4634 165.2 66.1783 165.689 66.3932L166.886 66.9194C167.105 67.0155 167.237 67.2415 167.213 67.4791L167.083 68.7806C167.029 69.312 167.687 69.601 168.043 69.2025L168.913 68.2262C169.072 68.0479 169.328 67.9923 169.546 68.0884L170.744 68.6147C171.233 68.8295 171.711 68.2933 171.442 67.8321L170.782 66.7025C170.662 66.4962 170.688 66.2359 170.847 66.0577L171.717 65.0814C172.073 64.6828 171.711 64.0624 171.189 64.1759L169.911 64.454C169.677 64.5048 169.438 64.3995 169.317 64.1933L168.658 63.0636Z" fill="white"/>
<circle cx="1.70785" cy="1.70785" r="1.70785" transform="matrix(-0.819152 0.573576 0.573576 0.819152 159.721 62.0278)" fill="white"/>
<rect width="2.31005" height="2.31005" rx="0.918708" transform="matrix(-0.226919 0.973914 0.973914 0.226919 157.899 72.7935)" fill="white"/>
<path d="M29.2147 198.576C28.3511 185.822 23.5294 173.693 20.5789 168.442" stroke="#74C884" stroke-width="5.51225" stroke-linecap="round"/>
<path d="M82.2551 193.52C80.3497 188.201 77.6031 178.022 84.7598 172.435" stroke="#74C884" stroke-width="5.51225" stroke-linecap="round"/>
<circle cx="21.3139" cy="164.216" r="11.392" fill="#74C884"/>
<path opacity="0.25" d="M21.3135 152.824C22.4538 152.824 23.555 152.993 24.5938 153.305C28.0313 154.511 28.7558 157.94 28.7559 162.93C27.0103 169.82 26.9179 170.28 19.6602 171.658C15.0574 171.658 11.9802 171.041 10.6582 168.247C10.1838 166.994 9.92188 165.635 9.92188 164.216C9.92208 157.925 15.0222 152.824 21.3135 152.824Z" fill="white"/>
<circle cx="85.1336" cy="168.025" r="8.77311" transform="rotate(-47 85.1336 168.025)" fill="#74C884"/>
<path d="M101.629 238.41C108.232 234.441 112.141 228.82 110.36 225.855C108.578 222.89 109.478 223.395 102.875 227.364C96.271 231.333 84.6642 237.262 86.4459 240.227C88.2276 243.192 95.0252 242.379 101.629 238.41Z" fill="#67AC71"/>
<path d="M14.8186 238.937C10.8916 245.565 5.29531 249.509 2.3189 247.746C-0.65752 245.983 -0.146482 246.88 3.78052 240.252C7.70751 233.623 13.5634 221.98 16.5398 223.742C19.5162 225.505 18.7456 232.308 14.8186 238.937Z" fill="#67AC71"/>
<path d="M94.8916 231.314C94.8916 254.74 75.3987 273.731 51.353 273.731C27.3073 273.731 7.81445 254.74 7.81445 231.314C7.81445 207.887 27.3073 188.896 51.353 188.896C75.3987 188.896 94.8916 207.887 94.8916 231.314Z" fill="#74C884"/>
<path d="M98.7992 218.858C98.7992 235.811 76.2074 239.128 51.5153 239.128C26.8232 239.128 4.46558 235.811 4.46558 218.858C4.46558 201.904 26.8232 177.734 51.5153 177.734C76.2074 177.734 98.7992 201.904 98.7992 218.858Z" fill="#67AC71"/>
<line x1="1.37806" y1="-1.37806" x2="11.5108" y2="-1.37806" transform="matrix(0.885356 0.464915 -0.352098 0.935963 28.019 270.208)" stroke="#67AC71" stroke-width="2.75612" stroke-linecap="round"/>
<path d="M33.0994 259.966L38.8016 274.363" stroke="#67AC71" stroke-width="2.75612" stroke-linecap="round"/>
<path d="M42.0425 264.938L38.7965 274.321" stroke="#67AC71" stroke-width="2.75612" stroke-linecap="round"/>
<path d="M58.7705 263.853L64.0912 274.163" stroke="#67AC71" stroke-width="2.75612" stroke-linecap="round"/>
<path d="M67.4043 260.377L64.1276 274.139" stroke="#67AC71" stroke-width="2.75612" stroke-linecap="round"/>
<line x1="1.37806" y1="-1.37806" x2="11.3064" y2="-1.37806" transform="matrix(-0.809868 0.586612 -0.482101 -0.876116 72.7825 266.333)" stroke="#67AC71" stroke-width="2.75612" stroke-linecap="round"/>
<path d="M35.3885 207.687C33.132 203.138 26.4657 195.63 17.2353 201.412C8.12798 207.01 9.42024 217.652 15.3892 223.927C21.3582 230.201 31.9424 231.678 35.3885 230.386C38.8345 229.094 39.0806 215.13 35.3885 207.687Z" fill="#2E4F3C"/>
<path d="M67.812 208.854C70.0684 204.289 76.7347 196.754 85.9651 202.557C95.0725 208.175 93.7802 218.856 87.8112 225.153C81.8422 231.45 71.258 232.932 67.812 231.635C64.366 230.339 64.1198 216.324 67.812 208.854Z" fill="#2E4F3C"/>
<path d="M17.0438 210.923C16.9998 210.391 17.6625 210.114 18.0109 210.518L18.5364 211.129C18.6922 211.31 18.9469 211.37 19.1671 211.278L19.9101 210.966C20.4027 210.76 20.8714 211.305 20.5942 211.761L20.176 212.45C20.052 212.654 20.0736 212.914 20.2294 213.095L20.7549 213.706C21.1033 214.111 20.7303 214.725 20.2106 214.602L19.4266 214.417C19.1941 214.362 18.9528 214.463 18.8289 214.667L18.4107 215.356C18.1334 215.812 17.4342 215.647 17.3902 215.115L17.3238 214.312C17.3042 214.074 17.1335 213.876 16.9011 213.821L16.1171 213.636C15.5974 213.513 15.5382 212.797 16.0307 212.591L16.7737 212.28C16.994 212.188 17.1298 211.964 17.1101 211.726L17.0438 210.923Z" fill="white"/>
<path d="M74.4813 209.552C74.4373 209.02 75.1 208.742 75.4484 209.147L75.9739 209.757C76.1297 209.938 76.3844 209.998 76.6046 209.906L77.3476 209.595C77.8402 209.389 78.3089 209.933 78.0317 210.39L77.6135 211.078C77.4895 211.282 77.5111 211.543 77.6669 211.724L78.1924 212.334C78.5408 212.739 78.1678 213.353 77.6481 213.23L76.8641 213.045C76.6316 212.991 76.3903 213.092 76.2664 213.296L75.8482 213.984C75.5709 214.441 74.8717 214.276 74.8277 213.743L74.7613 212.941C74.7417 212.703 74.571 212.504 74.3386 212.45L73.5546 212.265C73.0349 212.142 72.9757 211.426 73.4682 211.22L74.2112 210.908C74.4315 210.816 74.5673 210.593 74.5476 210.355L74.4813 209.552Z" fill="white"/>
<circle cx="25.1008" cy="206.249" r="1.47851" fill="white"/>
<circle cx="81.6257" cy="205.68" r="1.47851" fill="white"/>
<rect x="27.8867" y="211.404" width="1.9691" height="1.9691" rx="0.918708" transform="rotate(41.8843 27.8867 211.404)" fill="white"/>
<rect x="86.7297" y="210.836" width="1.9691" height="1.9691" rx="0.918708" transform="rotate(41.8843 86.7297 210.836)" fill="white"/>
<path opacity="0.2" d="M84.5107 159.439C85.3021 159.439 86.0664 159.556 86.7871 159.773C89.1649 160.61 89.666 162.985 89.666 166.439C88.4569 171.212 88.3931 171.53 83.3662 172.485C80.1707 172.485 78.0362 172.055 77.124 170.109C76.7987 169.244 76.6201 168.308 76.6201 167.33C76.6203 162.972 80.153 159.439 84.5107 159.439Z" fill="white"/>
<path d="M196.25 84.8887C198.147 83.2248 203.045 80.8954 207.458 84.8887" stroke="#2E4F3C" stroke-width="3.67483" stroke-linecap="round"/>
<path opacity="0.25" fill-rule="evenodd" clip-rule="evenodd" d="M156.572 0.0102539C157.014 2.42271 157.114 5.46298 157.114 9.2085C157.114 12.7605 156.659 16.3876 155.758 19.7397C155.351 19.3178 154.946 19.0277 154.542 18.8931C148.755 16.9638 141.68 31.7545 135.892 29.1821C130.105 26.6087 130.749 4.74519 154.542 0.243652C155.24 0.111659 155.916 0.0353701 156.572 0.0102539Z" fill="white"/>
<path opacity="0.25" fill-rule="evenodd" clip-rule="evenodd" d="M225.869 47.0979C237.628 36.3797 263.609 15.7146 273.458 18.801C273.597 18.8444 273.734 18.893 273.872 18.9416C253.867 28.6057 245.007 44.8491 231.207 49.6262L225.869 47.0979Z" fill="white"/>
</svg>
