<svg width="445" height="273" viewBox="0 0 445 273" fill="none" xmlns="http://www.w3.org/2000/svg">
<path d="M168.941 200.245C168.685 198.925 168.301 197.789 167.461 195.872C166.814 194.394 164.792 190.166 163.329 186.212C159.769 176.587 157.693 164.953 158.388 146.563C159.043 129.222 160.858 117.339 163.768 107.467C166.499 98.2047 170.465 90.4555 172.607 85.4983L172.929 84.7913C173.706 83.1545 174.686 81.6203 175.846 80.2253L192.558 94.1197C175.846 80.2254 175.857 80.2121 175.867 80.1992C175.871 80.1946 175.882 80.1825 175.889 80.174C175.904 80.1567 175.918 80.1385 175.933 80.1208C175.962 80.0857 175.993 80.0499 176.023 80.0137C176.085 79.9412 176.15 79.8667 176.217 79.7902C176.351 79.637 176.495 79.4756 176.65 79.3072C176.96 78.9704 177.312 78.605 177.709 78.2164C178.504 77.4382 179.474 76.5699 180.639 75.6554C182.979 73.8184 186.051 71.8358 189.971 70.0199C197.877 66.358 208.679 63.6283 223.092 63.6283C237.474 63.6283 248.21 66.3483 256.119 70.246C260.047 72.1823 263.119 74.3329 265.469 76.3879C266.638 77.4091 267.609 78.3896 268.406 79.2839C268.804 79.7305 269.157 80.1542 269.469 80.5489C269.625 80.7462 269.77 80.9368 269.906 81.1187C269.973 81.2095 270.038 81.2987 270.101 81.3853C270.132 81.4286 270.163 81.4713 270.193 81.5136L270.259 81.6082C270.27 81.6236 270.282 81.6387 252.711 93.9641L270.281 81.6388C271.169 82.9042 271.919 84.2614 272.519 85.6861C275.438 92.6182 285.728 113.051 285.728 147.384C285.728 163.238 285.79 175.064 284.439 184.167C282.773 195.4 278.994 202.969 273.302 211.009C271.282 213.862 268.604 216.187 265.495 217.784L255.564 198.452L264.25 215.369C265.49 217.786 265.488 217.787 265.486 217.788C265.484 217.789 265.48 217.791 265.477 217.793C265.47 217.796 265.464 217.799 265.458 217.802C265.444 217.809 265.429 217.817 265.414 217.825C265.384 217.84 265.349 217.858 265.311 217.878C265.234 217.916 265.141 217.963 265.033 218.016C264.818 218.123 264.54 218.258 264.206 218.417C263.538 218.735 262.635 219.151 261.529 219.63C259.326 220.583 256.252 221.813 252.559 223.02C245.408 225.355 234.823 227.975 223.249 227.628C211.683 227.282 200.696 223.914 193.386 221.176C189.561 219.743 186.346 218.33 184.052 217.259C182.9 216.72 181.964 216.261 181.283 215.918C180.942 215.746 180.664 215.603 180.453 215.493C180.347 215.438 180.258 215.392 180.187 215.355C180.151 215.336 180.12 215.319 180.093 215.304C180.079 215.297 180.066 215.291 180.055 215.285C180.05 215.282 180.044 215.279 180.039 215.276C180.037 215.275 180.033 215.273 180.032 215.272C180.028 215.27 180.025 215.268 190.277 196.105L180.025 215.268C174.258 212.183 170.187 206.665 168.941 200.245Z" fill="white" stroke="white" stroke-width="43.4668" stroke-linejoin="round"/>
<path d="M102.766 143.873C62.8282 151.214 37.7966 160.985 38.0854 171.062C38.6202 189.725 125.808 202.369 232.825 199.302C339.841 196.236 426.162 178.62 425.627 159.956C425.318 149.158 395.999 140.375 350.616 135.484" stroke="#D92D2D" stroke-width="1.21707" stroke-linecap="round"/>
<path d="M98.826 149.318C58.8877 156.659 33.8562 166.431 34.145 176.508C34.6798 195.171 121.867 207.815 228.884 204.748C335.901 201.681 422.221 184.066 421.687 165.402C421.377 154.604 392.059 145.82 346.675 140.929" stroke="#D92D2D" stroke-width="1.21707" stroke-linecap="round"/>
<path d="M189.233 239.747C189.233 256.541 191.685 266.449 192.911 269.304H204.881" stroke="#613030" stroke-width="5.21601" stroke-linecap="round" stroke-linejoin="round"/>
<path d="M254.012 239.747C261.091 257.429 267.851 266.825 270.346 269.314L282.963 264.262" stroke="#613030" stroke-width="5.21601" stroke-linecap="round" stroke-linejoin="round"/>
<ellipse cx="254.644" cy="126.836" rx="4.78135" ry="6.52002" fill="#613030"/>
<ellipse cx="254.644" cy="126.836" rx="4.78135" ry="6.52002" fill="#613030"/>
<path fill-rule="evenodd" clip-rule="evenodd" d="M308.656 115.244C387.445 115.523 443.136 124.835 444.205 140.127C445.644 160.732 347.377 184.389 224.72 192.966C102.061 201.543 1.45809 191.793 0.0156392 171.188C-1.06612 155.715 54.073 138.522 133.544 127.285L132.859 136.193C77.4764 145.07 40.4097 157.3 41.1787 168.317L41.2197 168.693C43.5873 184.571 124.993 191.822 224.12 184.89C323.247 177.958 402.851 159.449 402.986 143.396L402.976 143.018C402.214 132.131 364.694 125.213 309.688 124.006L308.656 115.244ZM310.1 127.492C324.072 127.807 336.891 128.493 348.233 129.521C364.696 131.012 377.89 133.21 386.954 135.964C391.504 137.347 394.806 138.81 396.93 140.258C399.112 141.747 399.475 142.804 399.507 143.26C399.539 143.716 399.327 144.814 397.373 146.591C395.471 148.321 392.405 150.229 388.091 152.232C379.499 156.221 366.739 160.232 350.645 164C318.509 171.524 273.705 177.937 223.878 181.421C174.051 184.906 128.792 184.791 95.9219 181.813C79.4593 180.322 66.2653 178.124 57.2012 175.37C52.6504 173.987 49.3487 172.524 47.2246 171.076C45.0422 169.587 44.6796 168.531 44.6475 168.075C44.6157 167.619 44.8276 166.521 46.7822 164.743C48.6841 163.013 51.7499 161.105 56.0635 159.102C64.656 155.113 77.4161 151.102 93.5108 147.333C105.026 144.638 118.168 142.086 132.585 139.759L131.758 150.502C102.027 155.319 83.3234 160.711 83.6406 165.25C84.2173 173.454 146.687 175.768 223.174 170.419C299.661 165.071 361.201 154.085 360.63 145.881C360.314 141.362 341.213 138.63 311.334 137.982L310.1 127.492Z" fill="#D92D2D"/>
<path opacity="0.4" fill-rule="evenodd" clip-rule="evenodd" d="M309.016 118.294C377.111 119.106 424.697 127.661 425.655 141.352L425.666 141.575C426.288 160.533 337.472 182.11 226.696 189.856C115.92 197.602 24.9668 188.596 22.9438 169.736L22.9242 169.514C21.9761 155.955 67.0174 141.021 133.278 130.749L133.004 134.31C113.604 137.337 96.0657 140.759 81.0238 144.426C63.1158 148.792 48.9092 153.463 39.3363 158.133C34.5343 160.476 31.0928 162.726 28.9399 164.796C26.7559 166.896 26.3303 168.372 26.393 169.271C26.456 170.17 27.0827 171.572 29.5375 173.347C31.9575 175.097 35.6787 176.847 40.7602 178.499C50.8899 181.791 65.6081 184.439 83.9496 186.27C120.576 189.926 170.982 190.266 226.454 186.387C281.925 182.508 331.793 175.157 367.554 166.439C385.462 162.073 399.67 157.402 409.243 152.732C414.044 150.389 417.485 148.139 419.638 146.069C421.822 143.969 422.247 142.494 422.185 141.595C422.122 140.696 421.495 139.294 419.039 137.518C416.619 135.768 412.899 134.018 407.818 132.367C397.688 129.074 382.97 126.426 364.628 124.595C348.618 122.997 329.974 122.031 309.426 121.776L309.016 118.294Z" fill="#EEECEC"/>
<path opacity="0.6" fill-rule="evenodd" clip-rule="evenodd" d="M72.3097 182.338C85.8075 184.645 103.153 186.232 123.262 186.995L98.4386 195.201C74.3142 194.105 53.5284 192.007 37.3566 189.025L72.3097 182.338ZM122.154 172.803C134.367 173.332 148.985 173.442 165.273 173.108L132.887 183.813C119.368 183.486 106.948 182.812 95.922 181.813C91.2209 181.387 86.7867 180.899 82.6388 180.362L122.154 172.803ZM312.401 127.547C325.481 127.884 337.516 128.55 348.234 129.521C351.294 129.798 354.241 130.099 357.07 130.424L312.383 138.006C312.035 137.998 311.685 137.99 311.334 137.982L310.183 128.2L312.401 127.547ZM350.511 116.342C372.194 117.466 391.006 119.428 405.97 122.128L368.614 128.466C356.122 126.522 340.673 125.152 323.022 124.424L350.511 116.342Z" fill="#EEECEC"/>
<path d="M336.032 137.685C316.433 156.81 310.956 155.243 304.001 155.243" stroke="#613030" stroke-width="5.21601" stroke-linecap="round"/>
<path d="M144.637 162.113C128.224 169.276 107.487 160.345 99.1707 154.984" stroke="#613030" stroke-width="5.21601" stroke-linecap="round"/>
<path d="M175.954 121.359L200.382 129.357L177.23 141.006" stroke="#613030" stroke-width="3.47734" stroke-linecap="round"/>
<path d="M158.631 40.9592C158.829 40.1176 159.906 39.8689 160.454 40.5383L169.73 51.8854C169.948 52.1513 170.282 52.2931 170.624 52.2648L185.231 51.0556C186.093 50.9843 186.662 51.932 186.195 52.6593L178.269 64.9886C178.084 65.2774 178.052 65.6391 178.185 65.9558L183.849 79.474C184.183 80.2714 183.457 81.1059 182.621 80.886L168.446 77.1587C168.114 77.0714 167.76 77.1531 167.5 77.3771L156.394 86.941C155.739 87.5052 154.721 87.0732 154.672 86.21L153.836 71.5771C153.817 71.2343 153.63 70.9231 153.336 70.7449L140.808 63.1375C140.069 62.6888 140.166 61.5873 140.971 61.2737L154.63 55.9574C154.95 55.8328 155.188 55.5588 155.267 55.2246L158.631 40.9592Z" fill="#F98282"/>
<path d="M186.361 52.0869C186.363 52.2785 186.312 52.4758 186.194 52.6592L178.27 64.9883C178.084 65.2771 178.052 65.6394 178.185 65.9561L183.849 79.4736C184.183 80.2711 183.457 81.1056 182.621 80.8857L168.446 77.1592C168.114 77.0719 167.76 77.1529 167.5 77.377L156.394 86.9414C156.217 87.0936 156.013 87.1703 155.81 87.1885L163.613 63.0869L163.625 63.0518L163.658 63.0361L186.361 52.0869Z" fill="#E46664" fill-opacity="0.8"/>
<circle cx="330.015" cy="26.0801" r="26.0801" fill="#C17373"/>
<path d="M330.015 0C331.867 9.2761e-07 333.673 0.194599 335.416 0.561523C335.413 0.671955 335.409 0.783909 335.406 0.897461C335.211 8.82423 335.714 13.6991 336.242 16.3008C336.54 17.7711 337.403 19.0132 338.428 20.1084L338.531 20.2178C342.305 24.2497 346.645 29.3712 351.442 26.6338C352.948 25.774 354.523 24.6909 355.968 23.5039C356.051 24.3514 356.095 25.2107 356.095 26.0801C356.095 38.0831 347.986 48.1903 336.948 51.2266C337.4 48.6387 336.739 45.8275 334.623 43.582L330.84 40.3203C326.003 36.1494 318.959 35.7749 313.707 39.4092L310.611 41.5508C310.26 41.7934 309.931 42.0562 309.623 42.3369C306.064 37.8785 303.935 32.2282 303.935 26.0801C303.935 23.6346 304.272 21.2679 304.902 19.0234L304.946 19.0791C305.484 19.7595 306.152 20.3266 306.911 20.7471L307.981 21.3398C310.361 22.6588 313.356 21.9313 314.866 19.667L315.946 18.0469C316.947 16.5446 318.976 16.1355 320.481 17.1328C322.529 18.4897 325.29 17.1622 325.551 14.7197C325.677 13.5437 325.165 12.379 324.208 11.6846L320.121 8.7207C318.005 7.18675 315.457 6.38986 312.864 6.43359C317.449 2.42757 323.448 0 330.015 0ZM338.725 28.7676C338.563 27.3805 336.96 26.6884 335.84 27.5225C335.556 27.7339 335.34 28.0239 335.219 28.3564L334.432 30.5195C334.106 31.414 334.107 32.3954 334.435 33.2891L334.737 34.1104C335.138 35.2045 336.181 35.9316 337.346 35.9316H339.018C341.514 35.9316 342.296 32.5634 340.075 31.4268C339.386 31.0744 338.916 30.4 338.827 29.6318L338.725 28.7676Z" fill="#F2CECE"/>
<path opacity="0.3" fill-rule="evenodd" clip-rule="evenodd" d="M303.935 26.0793C303.935 11.676 317.323 9.63575 327.842 10.6056C340.1 11.7358 345.751 13.0399 349.663 28.7746C349.663 43.1782 347.402 49.5515 330.015 52.1593C315.612 52.1593 303.935 40.4829 303.935 26.0793Z" fill="#E7E7E7"/>
<path d="M303.159 101.747C348.426 85.998 380.785 80.8418 385.45 90.492C392.856 105.815 327.634 152.665 239.773 195.135C151.911 237.605 74.6811 259.612 67.2745 244.289C63.2754 236.016 80.4492 218.552 110.927 197.548" stroke="#FFDAA0" stroke-width="1.73867" stroke-linecap="round" stroke-dasharray="8.69 8.69"/>
<path d="M121.477 125.011C84.7019 120.806 60.2801 122.679 57.8559 131.542C53.366 147.959 126.034 182.137 220.165 207.882C314.295 233.627 394.243 241.189 398.733 224.773C401.33 215.275 378.098 199.83 339.824 183.514" stroke="#E69F9F" stroke-width="1.21707" stroke-linecap="round"/>
<path d="M316.551 74.0796H307.065" stroke="#FFDAA0" stroke-width="1.57661" stroke-linecap="round"/>
<path d="M311.663 64.3311V84.065" stroke="#FFDAA0" stroke-width="1.57661" stroke-linecap="round"/>
<path d="M309.141 71.1631L314.449 77.3119" stroke="#FFDAA0" stroke-width="1.57661" stroke-linecap="round"/>
<path d="M314.291 71.1631L308.983 77.3644" stroke="#FFDAA0" stroke-width="1.57661" stroke-linecap="round"/>
<path d="M133.627 229.865H124.141" stroke="#FFDAA0" stroke-width="1.57661" stroke-linecap="round"/>
<path d="M128.74 220.116V239.85" stroke="#FFDAA0" stroke-width="1.57661" stroke-linecap="round"/>
<path d="M126.217 226.948L131.525 233.097" stroke="#FFDAA0" stroke-width="1.57661" stroke-linecap="round"/>
<path d="M131.368 226.948L126.06 233.15" stroke="#FFDAA0" stroke-width="1.57661" stroke-linecap="round"/>
<circle cx="332.45" cy="227.071" r="14.6048" fill="url(#paint0_radial_1519_2627)" style="mix-blend-mode:hard-light"/>
<circle cx="388.087" cy="202.729" r="14.6048" fill="url(#paint1_radial_1519_2627)" style="mix-blend-mode:hard-light"/>
<circle cx="82.4133" cy="106.755" r="14.6048" fill="url(#paint2_radial_1519_2627)" style="mix-blend-mode:hard-light"/>
<path d="M79.4344 99.0845C79.451 98.2425 80.5354 97.9138 81.0168 98.6047L83.3146 101.903C83.5299 102.212 83.9197 102.347 84.2802 102.238L88.1268 101.071C88.9327 100.827 89.5804 101.757 89.0721 102.428L86.6456 105.633C86.4183 105.933 86.4101 106.345 86.6254 106.654L88.9232 109.952C89.4047 110.643 88.7207 111.547 87.925 111.271L84.1276 109.953C83.7717 109.83 83.3769 109.949 83.1496 110.25L80.7231 113.454C80.2147 114.126 79.1442 113.754 79.1609 112.912L79.2404 108.893C79.2478 108.517 79.0119 108.178 78.6561 108.055L74.8586 106.738C74.063 106.461 74.0854 105.329 74.8913 105.084L78.7379 103.918C79.0984 103.809 79.3474 103.48 79.3549 103.103L79.4344 99.0845Z" fill="#FFDAA0"/>
<path d="M329.528 220.153C329.545 219.311 330.629 218.982 331.111 219.673L333.409 222.971C333.624 223.28 334.014 223.415 334.374 223.306L338.221 222.14C339.027 221.895 339.675 222.825 339.166 223.496L336.74 226.701C336.512 227.001 336.504 227.414 336.72 227.723L339.017 231.021C339.499 231.712 338.815 232.615 338.019 232.339L334.222 231.022C333.866 230.898 333.471 231.018 333.244 231.318L330.817 234.523C330.309 235.194 329.238 234.823 329.255 233.981L329.334 229.962C329.342 229.585 329.106 229.247 328.75 229.123L324.953 227.806C324.157 227.53 324.18 226.397 324.985 226.153L328.832 224.986C329.192 224.877 329.442 224.548 329.449 224.172L329.528 220.153Z" fill="#FFDAA0"/>
<path d="M386.036 195.812C386.052 194.97 387.137 194.641 387.618 195.332L389.916 198.63C390.131 198.939 390.521 199.074 390.881 198.965L394.728 197.798C395.534 197.554 396.182 198.484 395.673 199.155L393.247 202.36C393.019 202.66 393.011 203.072 393.227 203.381L395.524 206.679C396.006 207.37 395.322 208.274 394.526 207.998L390.729 206.68C390.373 206.557 389.978 206.676 389.751 206.977L387.324 210.181C386.816 210.853 385.745 210.481 385.762 209.639L385.842 205.621C385.849 205.244 385.613 204.905 385.257 204.782L381.46 203.465C380.664 203.189 380.687 202.056 381.493 201.811L385.339 200.645C385.7 200.536 385.949 200.207 385.956 199.83L386.036 195.812Z" fill="#FFDAA0"/>
<circle cx="161.175" cy="62.4183" r="1.39094" fill="#FFC1C1"/>
<ellipse cx="159.779" cy="56.1666" rx="1.39094" ry="3.30347" transform="rotate(-9.3139 159.779 56.1666)" fill="#FFC1C1"/>
<defs>
<radialGradient id="paint0_radial_1519_2627" cx="0" cy="0" r="1" gradientUnits="userSpaceOnUse" gradientTransform="translate(332.45 227.071) rotate(90) scale(14.6048)">
<stop stop-color="#FFDAA0"/>
<stop offset="1" stop-color="#FFDAA0" stop-opacity="0"/>
</radialGradient>
<radialGradient id="paint1_radial_1519_2627" cx="0" cy="0" r="1" gradientUnits="userSpaceOnUse" gradientTransform="translate(388.087 202.729) rotate(90) scale(14.6048)">
<stop stop-color="#FFDAA0"/>
<stop offset="1" stop-color="#FFDAA0" stop-opacity="0"/>
</radialGradient>
<radialGradient id="paint2_radial_1519_2627" cx="0" cy="0" r="1" gradientUnits="userSpaceOnUse" gradientTransform="translate(82.4133 106.755) rotate(90) scale(14.6048)">
<stop stop-color="#FFDAA0"/>
<stop offset="1" stop-color="#FFDAA0" stop-opacity="0"/>
</radialGradient>
</defs>
</svg>
